<svg xmlns="http://www.w3.org/2000/svg" xmlns:xlink="http://www.w3.org/1999/xlink" width="40" zoomAndPan="magnify" viewBox="0 0 30 30.000001" height="40" preserveAspectRatio="xMidYMid meet" version="1.2"><defs><clipPath id="032cd67575"><path d="M 0.484375 0 L 29.515625 0 L 29.515625 29.03125 L 0.484375 29.03125 Z M 0.484375 0 "/></clipPath><clipPath id="1399ba93af"><path d="M 10 0.425781 L 28.667969 0.425781 L 28.667969 18 L 10 18 Z M 10 0.425781 "/></clipPath></defs><g id="51180a4b25"><g clip-rule="nonzero" clip-path="url(#032cd67575)"><path style=" stroke:none;fill-rule:nonzero;fill:#ffffff;fill-opacity:1;" d="M 0.484375 0 L 29.515625 0 L 29.515625 29.03125 L 0.484375 29.03125 Z M 0.484375 0 "/><path style=" stroke:none;fill-rule:nonzero;fill:#ffffff;fill-opacity:1;" d="M 0.484375 0 L 29.515625 0 L 29.515625 29.03125 L 0.484375 29.03125 Z M 0.484375 0 "/></g><path style=" stroke:none;fill-rule:nonzero;fill:#004aad;fill-opacity:1;" d="M 3.367188 8.890625 L 3.371094 8.890625 L 3.378906 8.878906 C 3.871094 8.390625 4.890625 8.140625 5.664062 8.101562 C 5.898438 8.09375 6.117188 8.101562 6.292969 8.125 C 6.515625 8.160156 6.695312 8.230469 6.804688 8.335938 L 6.804688 8.339844 L 6.8125 8.34375 C 6.875 8.40625 6.914062 8.484375 6.933594 8.566406 L 8.960938 13.679688 C 8.976562 13.71875 8.984375 13.757812 8.988281 13.792969 L 8.988281 13.796875 L 8.984375 13.820312 L 8.984375 13.84375 C 8.921875 14.417969 7.578125 15.769531 7.175781 16.175781 L 7.171875 16.175781 L 7.171875 16.179688 C 7.097656 16.300781 7.734375 17.117188 8.597656 18.109375 C 9.011719 18.582031 9.480469 19.082031 9.96875 19.566406 C 10.453125 20.050781 10.953125 20.519531 11.417969 20.921875 C 12.378906 21.75 13.148438 22.34375 13.234375 22.257812 C 13.433594 22.058594 13.871094 21.621094 14.3125 21.230469 C 14.800781 20.800781 15.308594 20.429688 15.609375 20.441406 C 15.652344 20.441406 15.691406 20.453125 15.730469 20.46875 L 20.828125 22.492188 C 20.914062 22.511719 20.988281 22.554688 21.054688 22.617188 C 21.164062 22.726562 21.234375 22.910156 21.269531 23.136719 C 21.292969 23.3125 21.300781 23.53125 21.289062 23.769531 C 21.253906 24.550781 21 25.574219 20.503906 26.070312 L 20.484375 26.085938 C 18.214844 28.351562 14.597656 27.605469 11.15625 25.414062 C 9.8125 24.5625 8.496094 23.488281 7.292969 22.285156 C 6.09375 21.085938 5.011719 19.761719 4.148438 18.414062 C 1.890625 14.890625 1.085938 11.167969 3.367188 8.890625 Z M 5.695312 8.769531 C 5.042969 8.804688 4.203125 8.992188 3.84375 9.359375 L 3.839844 9.363281 C 1.828125 11.371094 2.617188 14.785156 4.710938 18.054688 C 5.550781 19.363281 6.601562 20.648438 7.765625 21.8125 C 8.929688 22.976562 10.210938 24.019531 11.515625 24.851562 C 14.703125 26.878906 18.015625 27.613281 20.015625 25.609375 L 20.03125 25.59375 C 20.398438 25.226562 20.589844 24.390625 20.621094 23.738281 C 20.632812 23.546875 20.625 23.371094 20.605469 23.234375 C 20.597656 23.179688 20.589844 23.140625 20.585938 23.117188 L 15.550781 21.113281 C 15.421875 21.160156 15.097656 21.429688 14.753906 21.730469 C 14.335938 22.101562 13.90625 22.53125 13.714844 22.726562 L 13.710938 22.730469 L 13.707031 22.730469 C 13.308594 23.125 12.207031 22.484375 10.980469 21.425781 C 10.5 21.007812 9.988281 20.53125 9.496094 20.039062 C 9 19.546875 8.519531 19.035156 8.097656 18.550781 C 7.039062 17.339844 6.363281 16.230469 6.648438 15.773438 L 6.648438 15.769531 C 6.664062 15.746094 6.679688 15.722656 6.699219 15.703125 C 7.054688 15.347656 8.21875 14.175781 8.3125 13.855469 L 6.308594 8.804688 L 6.195312 8.789062 C 6.058594 8.765625 5.886719 8.761719 5.695312 8.769531 Z M 8.984375 13.84375 C 8.96875 13.960938 8.894531 14.070312 8.773438 14.117188 Z M 8.984375 13.84375 "/><g clip-rule="nonzero" clip-path="url(#1399ba93af)"><path style=" stroke:none;fill-rule:nonzero;fill:#004aad;fill-opacity:1;" d="M 16.457031 13.859375 C 16.902344 14.515625 17.144531 15.101562 17.140625 15.640625 C 17.140625 15.929688 17.066406 16.195312 16.921875 16.445312 C 17.5625 16.320312 18.070312 16.058594 18.464844 15.746094 C 19.027344 15.308594 19.375 14.773438 19.566406 14.390625 C 19.628906 14.269531 19.746094 14.203125 19.871094 14.203125 C 22.148438 14.121094 24.195312 13.351562 25.664062 12.15625 C 27.105469 10.984375 27.992188 9.402344 27.992188 7.660156 C 27.992188 5.867188 27.050781 4.238281 25.535156 3.054688 C 23.992188 1.851562 21.859375 1.109375 19.496094 1.109375 C 17.132812 1.109375 15 1.851562 13.457031 3.054688 C 11.941406 4.238281 11.003906 5.867188 11.003906 7.660156 C 11.003906 9 11.527344 10.242188 12.417969 11.277344 C 13.351562 12.359375 14.691406 13.214844 16.269531 13.710938 C 16.351562 13.738281 16.417969 13.792969 16.457031 13.859375 Z M 16.46875 15.632812 C 16.46875 15.265625 16.289062 14.832031 15.953125 14.320312 C 14.304688 13.78125 12.902344 12.867188 11.90625 11.71875 C 10.910156 10.5625 10.328125 9.167969 10.328125 7.660156 C 10.328125 5.648438 11.367188 3.832031 13.042969 2.523438 C 14.699219 1.230469 16.980469 0.429688 19.496094 0.429688 C 22.011719 0.429688 24.292969 1.230469 25.949219 2.523438 C 27.628906 3.832031 28.667969 5.648438 28.667969 7.660156 C 28.667969 9.617188 27.6875 11.382812 26.089844 12.679688 C 24.550781 13.933594 22.433594 14.75 20.078125 14.871094 C 19.839844 15.296875 19.457031 15.828125 18.882812 16.28125 C 18.21875 16.796875 17.300781 17.203125 16.058594 17.203125 C 15.953125 17.203125 15.851562 17.152344 15.785156 17.058594 C 15.675781 16.90625 15.714844 16.699219 15.863281 16.589844 C 16.273438 16.300781 16.464844 15.984375 16.46875 15.632812 Z M 16.46875 15.632812 "/></g><path style=" stroke:none;fill-rule:nonzero;fill:#148af1;fill-opacity:1;" d="M 13.058594 9.101562 C 13.121094 9.277344 13.03125 9.46875 12.855469 9.53125 C 12.683594 9.589844 12.492188 9.5 12.429688 9.324219 C 12.332031 9.054688 12.261719 8.777344 12.214844 8.5 C 12.015625 7.308594 12.285156 6.128906 12.878906 5.152344 C 13.476562 4.179688 14.394531 3.40625 15.5 3.011719 C 15.765625 2.917969 16.042969 2.847656 16.332031 2.800781 C 16.511719 2.769531 16.683594 2.890625 16.714844 3.074219 C 16.746094 3.257812 16.621094 3.429688 16.441406 3.457031 C 16.195312 3.5 15.957031 3.5625 15.722656 3.644531 C 14.765625 3.984375 13.96875 4.65625 13.453125 5.503906 C 12.9375 6.347656 12.703125 7.363281 12.875 8.390625 C 12.914062 8.625 12.976562 8.863281 13.058594 9.101562 Z M 13.058594 9.101562 "/><path style=" stroke:none;fill-rule:nonzero;fill:#148af1;fill-opacity:1;" d="M 7.355469 8.222656 C 7.285156 8.050781 7.363281 7.855469 7.535156 7.785156 C 7.703125 7.714844 7.902344 7.796875 7.972656 7.964844 L 10.121094 13.125 C 10.191406 13.296875 10.109375 13.492188 9.9375 13.5625 C 9.769531 13.636719 9.574219 13.554688 9.5 13.382812 Z M 7.355469 8.222656 "/><path style=" stroke:none;fill-rule:nonzero;fill:#148af1;fill-opacity:1;" d="M 16.082031 19.945312 C 15.914062 19.875 15.835938 19.675781 15.90625 19.507812 C 15.976562 19.335938 16.171875 19.257812 16.34375 19.328125 L 21.359375 21.457031 C 21.53125 21.527344 21.609375 21.722656 21.539062 21.890625 C 21.46875 22.0625 21.273438 22.140625 21.101562 22.070312 Z M 16.082031 19.945312 "/><path style=" stroke:none;fill-rule:nonzero;fill:#019f7b;fill-opacity:1;" d="M 15.886719 6.171875 C 16.679688 6.171875 17.320312 6.8125 17.320312 7.605469 C 17.320312 8.398438 16.679688 9.039062 15.886719 9.039062 C 15.09375 9.039062 14.449219 8.398438 14.449219 7.605469 C 14.449219 6.8125 15.09375 6.171875 15.886719 6.171875 Z M 23.847656 6.171875 C 24.640625 6.171875 25.285156 6.8125 25.285156 7.605469 C 25.285156 8.398438 24.640625 9.039062 23.847656 9.039062 C 23.058594 9.039062 22.414062 8.398438 22.414062 7.605469 C 22.414062 6.8125 23.058594 6.171875 23.847656 6.171875 Z M 19.867188 6.171875 C 20.660156 6.171875 21.300781 6.8125 21.300781 7.605469 C 21.300781 8.398438 20.660156 9.039062 19.867188 9.039062 C 19.074219 9.039062 18.433594 8.398438 18.433594 7.605469 C 18.433594 6.8125 19.074219 6.171875 19.867188 6.171875 Z M 19.867188 6.171875 "/></g></svg>